# xmcd
#
# Track frame offsets:
#	150
#	18405
#	33202
#	47917
#	65610
#	90417
#	115045
#	141617
#	158422
#	177895
#	204407
#
# Disc length: 3066 seconds
#
# Revision: 5
# Processed by: cddbd v1.4b42PL1 Copyright (c) Steve Scherf et al.
# Submitted via: CDmax 1.8
#
DISCID=8b0bf80b
DTITLE=Lucinda Williams - Essence
DYEAR=2001
DGENRE=Folk
TTITLE0=Lonely Girls
TTITLE1=Steal Your Love
TTITLE2=I Envy the Wind
TTITLE3=Blue
TTITLE4=Out of Touch
TTITLE5=Are You Down
TTITLE6=Essence
TTITLE7=Reason to Cry
TTITLE8=Get Right with God
TTITLE9=Bus to Baton Rouge
TTITLE10=Broken Butterflies
EXTD=
EXTT0=
EXTT1=
EXTT2=
EXTT3=
EXTT4=
EXTT5=
EXTT6=
EXTT7=
EXTT8=
EXTT9=
EXTT10=
PLAYORDER=
